<?xml version="1.0" encoding="UTF-8" standalone="no"?>
<!DOCTYPE svg PUBLIC "-//W3C//DTD SVG 1.1//EN"
 "http://www.w3.org/Graphics/SVG/1.1/DTD/svg11.dtd">
<!-- Generated by graphviz version 2.38.0 (20140413.2041)
 -->
<!-- Title: %3 Pages: 1 -->
<svg width="143pt" height="110pt"
 viewBox="0.00 0.00 142.50 110.08" xmlns="http://www.w3.org/2000/svg" xmlns:xlink="http://www.w3.org/1999/xlink">
<g id="graph0" class="graph" transform="scale(1 1) rotate(0) translate(4 106.083)">
<title>%3</title>
<polygon fill="white" stroke="none" points="-4,4 -4,-106.083 138.5,-106.083 138.5,4 -4,4"/>
<!-- Y_C -->
<g id="node1" class="node"><title>Y_C</title>
<polygon fill="lightgray" stroke="black" points="33,-102.083 0,-102.083 0,-84.0833 33,-84.0833 33,-102.083"/>
<text text-anchor="middle" x="16.5" y="-90.8833" font-family="Times New Roman,serif" font-size="9.00">Y_C</text>
</g>
<!-- Prob -->
<g id="node4" class="node"><title>Prob</title>
<ellipse fill="lightblue" stroke="black" cx="67.5" cy="-24.0416" rx="24.0833" ry="24.0833"/>
<text text-anchor="middle" x="67.5" y="-21.8416" font-family="Times New Roman,serif" font-size="9.00">Prob</text>
</g>
<!-- Y_C&#45;&gt;Prob -->
<g id="edge1" class="edge"><title>Y_C&#45;&gt;Prob</title>
<path fill="none" stroke="green" stroke-width="0.432764" d="M22.7536,-83.8626C28.8322,-75.8721 38.3992,-63.2959 47.1295,-51.8196"/>
<polygon fill="green" stroke="green" stroke-width="0.432764" points="50.0078,-53.8167 53.2767,-43.7387 44.4366,-49.5785 50.0078,-53.8167"/>
</g>
<!-- Y_B -->
<g id="node2" class="node"><title>Y_B</title>
<polygon fill="lightgray" stroke="black" points="84,-102.083 51,-102.083 51,-84.0833 84,-84.0833 84,-102.083"/>
<text text-anchor="middle" x="67.5" y="-90.8833" font-family="Times New Roman,serif" font-size="9.00">Y_B</text>
</g>
<!-- Y_B&#45;&gt;Prob -->
<g id="edge2" class="edge"><title>Y_B&#45;&gt;Prob</title>
<path fill="none" stroke="red" stroke-width="0.402137" d="M67.5,-83.8626C67.5,-77.3919 67.5,-67.9142 67.5,-58.4485"/>
<polygon fill="red" stroke="red" stroke-width="0.402137" points="71.0001,-58.3249 67.5,-48.3249 64.0001,-58.3249 71.0001,-58.3249"/>
</g>
<!-- Y_P -->
<g id="node3" class="node"><title>Y_P</title>
<polygon fill="lightgray" stroke="black" points="134.5,-102.083 102.5,-102.083 102.5,-84.0833 134.5,-84.0833 134.5,-102.083"/>
<text text-anchor="middle" x="118.5" y="-90.8833" font-family="Times New Roman,serif" font-size="9.00">Y_P</text>
</g>
<!-- Y_P&#45;&gt;Prob -->
<g id="edge3" class="edge"><title>Y_P&#45;&gt;Prob</title>
<path fill="none" stroke="green" stroke-width="0.22571" d="M112.246,-83.8626C106.168,-75.8721 96.6008,-63.2959 87.8705,-51.8196"/>
<polygon fill="green" stroke="green" stroke-width="0.22571" points="90.5634,-49.5785 81.7233,-43.7387 84.9922,-53.8167 90.5634,-49.5785"/>
</g>
</g>
</svg>
